<svg xmlns="http://www.w3.org/2000/svg" viewBox="0 0 64 64">
  <!-- PlowzBox favicon: logo-mark geometry with heavier blades and a
       bigger LED so it survives 16px rasterization. -->
  <rect x="1" y="1" width="62" height="62" rx="16" fill="#1e5e3f"/>
  <g fill="#ffffff">
    <rect x="13" y="44.5" width="34" height="6.5" rx="3.25"/>
    <path d="M30.5 11.5 C32.9 20.5 34.3 32 34.1 47 L26.9 47 C26.7 32 28.1 20.5 30.5 11.5 Z"/>
    <path d="M14 22.5 C20 28 24.1 36.5 24.9 47 L18.5 47 C17.7 38 16.3 29.5 14 22.5 Z"/>
    <path d="M47 22.5 C41 28 36.9 36.5 36.1 47 L42.5 47 C43.3 38 44.7 29.5 47 22.5 Z"/>
  </g>
  <circle cx="51.4" cy="54.6" r="3.4" fill="#8fd4ae"/>
</svg>
