<svg xmlns="http://www.w3.org/2000/svg" viewBox="0 0 120 120" role="img" aria-label="The morning approval queue cleared over one coffee">
  <defs>
    <radialGradient id="spac-f" cx="0.5" cy="0.42" r="0.8">
      <stop offset="0" stop-color="#123324"/><stop offset="1" stop-color="#0b241a"/>
    </radialGradient>
    <radialGradient id="spac-g" cx="0.5" cy="0.5" r="0.5">
      <stop offset="0" stop-color="#7df0b4" stop-opacity="0.55"/><stop offset="1" stop-color="#7df0b4" stop-opacity="0"/>
    </radialGradient>
  </defs>
  <rect x="4" y="4" width="112" height="112" rx="26" fill="url(#spac-f)"/>
  <rect x="4" y="4" width="112" height="112" rx="26" fill="none" stroke="#2a4a39" stroke-width="1.5"/>
  <!-- the mug -->
  <g>
    <path d="M26 58 h34 v26 a12 12 0 0 1 -12 12 h-10 a12 12 0 0 1 -12 -12 Z" fill="#06140e" opacity="0.6" transform="translate(2.5,3)"/>
    <path d="M26 58 h34 v26 a12 12 0 0 1 -12 12 h-10 a12 12 0 0 1 -12 -12 Z" fill="#f1f0ea"/>
    <path d="M60 64 h6 a8 8 0 0 1 0 16 h-6" fill="none" stroke="#f1f0ea" stroke-width="5"/>
    <path d="M35 50 c-2 -4 2 -6 0 -10 M47 50 c-2 -4 2 -6 0 -10" fill="none" stroke="#c2e8d3" stroke-width="3" stroke-linecap="round"/>
  </g>
  <!-- queue cards sliding by -->
  <g>
    <rect x="64" y="30" width="34" height="16" rx="5" fill="#17422e"/>
    <rect x="69" y="35" width="18" height="5" rx="2.5" fill="#27754f"/>
    <rect x="68" y="52" width="34" height="16" rx="5" fill="#17422e"/>
    <rect x="73" y="57" width="18" height="5" rx="2.5" fill="#27754f"/>
  </g>
  <!-- the approve tap, glowing -->
  <circle cx="88" cy="86" r="22" fill="url(#spac-g)"/>
  <g>
    <rect x="72" y="76" width="34" height="18" rx="9" fill="#06140e" opacity="0.55" transform="translate(2,2.5)"/>
    <rect x="72" y="76" width="34" height="18" rx="9" fill="#8fd4ae"/>
    <path d="M83 85 l3.6 3.8 6.6 -7.6" fill="none" stroke="#123324" stroke-width="2.8" stroke-linecap="round" stroke-linejoin="round"/>
  </g>
</svg>
