<svg xmlns="http://www.w3.org/2000/svg" viewBox="0 0 120 120" role="img" aria-label="A quote drafted from the price book, given as an honest range">
  <defs>
    <radialGradient id="spqr-f" cx="0.5" cy="0.42" r="0.8">
      <stop offset="0" stop-color="#123324"/><stop offset="1" stop-color="#0b241a"/>
    </radialGradient>
    <radialGradient id="spqr-g" cx="0.5" cy="0.5" r="0.5">
      <stop offset="0" stop-color="#7df0b4" stop-opacity="0.55"/><stop offset="1" stop-color="#7df0b4" stop-opacity="0"/>
    </radialGradient>
  </defs>
  <rect x="4" y="4" width="112" height="112" rx="26" fill="url(#spqr-f)"/>
  <rect x="4" y="4" width="112" height="112" rx="26" fill="none" stroke="#2a4a39" stroke-width="1.5"/>
  <!-- quote sheet -->
  <g>
    <path d="M32 22 h38 l16 16 v58 a6 6 0 0 1 -6 6 h-48 a6 6 0 0 1 -6 -6 v-68 a6 6 0 0 1 6 -6 Z" fill="#06140e" opacity="0.6" transform="translate(2.5,3)"/>
    <path d="M32 22 h38 l16 16 v58 a6 6 0 0 1 -6 6 h-48 a6 6 0 0 1 -6 -6 v-68 a6 6 0 0 1 6 -6 Z" fill="#f1f0ea"/>
    <path d="M70 22 l16 16 h-12 a4 4 0 0 1 -4 -4 Z" fill="#c2e8d3"/>
  </g>
  <g fill="#27754f">
    <rect x="36" y="44" width="34" height="5" rx="2.5"/>
    <rect x="36" y="55" width="42" height="5" rx="2.5"/>
    <rect x="36" y="66" width="26" height="5" rx="2.5"/>
  </g>
  <!-- the honest range slider -->
  <rect x="36" y="82" width="42" height="4" rx="2" fill="#c2e8d3"/>
  <circle cx="46" cy="84" r="5" fill="#1e5e3f"/>
  <circle cx="68" cy="84" r="5" fill="#1e5e3f"/>
  <!-- priced-from-the-book seal, glowing -->
  <circle cx="88" cy="84" r="22" fill="url(#spqr-g)"/>
  <circle cx="88" cy="84" r="13" fill="#06140e" opacity="0.55" transform="translate(2,2.5)"/>
  <circle cx="88" cy="84" r="13" fill="#8fd4ae"/>
  <path d="M88 78 v12 M84.5 80.5 h5.5 a2.75 2.75 0 0 1 0 5.5 h-2 a2.75 2.75 0 0 0 0 5.5 h-6" fill="none" stroke="#123324" stroke-width="2.4" stroke-linecap="round"/>
</svg>
