<svg xmlns="http://www.w3.org/2000/svg" viewBox="0 0 120 120" role="img" aria-label="A drafted review reply, with the fifth star being earned">
  <defs>
    <radialGradient id="sprs-f" cx="0.5" cy="0.42" r="0.8">
      <stop offset="0" stop-color="#123324"/><stop offset="1" stop-color="#0b241a"/>
    </radialGradient>
    <radialGradient id="sprs-g" cx="0.5" cy="0.5" r="0.5">
      <stop offset="0" stop-color="#7df0b4" stop-opacity="0.55"/><stop offset="1" stop-color="#7df0b4" stop-opacity="0"/>
    </radialGradient>
  </defs>
  <rect x="4" y="4" width="112" height="112" rx="26" fill="url(#sprs-f)"/>
  <rect x="4" y="4" width="112" height="112" rx="26" fill="none" stroke="#2a4a39" stroke-width="1.5"/>
  <!-- four earned stars + the fifth, glowing -->
  <g>
    <g fill="#06140e" opacity="0.55" transform="translate(2,2.5)">
      <path d="M28 34 l2.8 5.6 6.2 0.9 -4.5 4.4 1.1 6.1 -5.6 -2.9 -5.6 2.9 1.1 -6.1 -4.5 -4.4 6.2 -0.9 Z"/>
      <path d="M50 34 l2.8 5.6 6.2 0.9 -4.5 4.4 1.1 6.1 -5.6 -2.9 -5.6 2.9 1.1 -6.1 -4.5 -4.4 6.2 -0.9 Z"/>
      <path d="M72 34 l2.8 5.6 6.2 0.9 -4.5 4.4 1.1 6.1 -5.6 -2.9 -5.6 2.9 1.1 -6.1 -4.5 -4.4 6.2 -0.9 Z"/>
    </g>
    <g fill="#c2e8d3">
      <path d="M28 34 l2.8 5.6 6.2 0.9 -4.5 4.4 1.1 6.1 -5.6 -2.9 -5.6 2.9 1.1 -6.1 -4.5 -4.4 6.2 -0.9 Z"/>
      <path d="M50 34 l2.8 5.6 6.2 0.9 -4.5 4.4 1.1 6.1 -5.6 -2.9 -5.6 2.9 1.1 -6.1 -4.5 -4.4 6.2 -0.9 Z"/>
      <path d="M72 34 l2.8 5.6 6.2 0.9 -4.5 4.4 1.1 6.1 -5.6 -2.9 -5.6 2.9 1.1 -6.1 -4.5 -4.4 6.2 -0.9 Z"/>
    </g>
    <circle cx="94" cy="42" r="20" fill="url(#sprs-g)"/>
    <path d="M94 32 l3.4 6.7 7.4 1.1 -5.4 5.3 1.3 7.3 -6.7 -3.5 -6.7 3.5 1.3 -7.3 -5.4 -5.3 7.4 -1.1 Z" fill="#8fd4ae"/>
  </g>
  <!-- the drafted reply beneath -->
  <g>
    <path d="M28 62 h56 a8 8 0 0 1 8 8 v14 a8 8 0 0 1 -8 8 h-34 l-10 9 v-9 h-12 a8 8 0 0 1 -8 -8 v-14 a8 8 0 0 1 8 -8 Z" fill="#06140e" opacity="0.6" transform="translate(2.5,3)"/>
    <path d="M28 62 h56 a8 8 0 0 1 8 8 v14 a8 8 0 0 1 -8 8 h-34 l-10 9 v-9 h-12 a8 8 0 0 1 -8 -8 v-14 a8 8 0 0 1 8 -8 Z" fill="#f1f0ea"/>
    <rect x="30" y="70" width="42" height="5" rx="2.5" fill="#27754f"/>
    <rect x="30" y="80" width="30" height="5" rx="2.5" fill="#8fd4ae"/>
  </g>
</svg>
