<svg xmlns="http://www.w3.org/2000/svg" viewBox="0 0 252 64" role="img" aria-label="CrewHQ">
  <!-- CrewHQ horizontal lockup: mark + wordmark.
       Wordmark is set live in the system UI stack by design:
       the appliance ships zero downloaded assets and so does
       the brand. See BRAND.md ("Wordmark"). -->
  <g>
    <rect x="2" y="2" width="60" height="60" rx="15" fill="#1e5e3f"/>
    <g fill="#fafaf7">
      <rect x="15" y="45" width="34" height="5.5" rx="2.75"/>
      <path d="M32 12.5 C34 21 35.3 32 35.1 47 L28.9 47 C28.7 32 30 21 32 12.5 Z"/>
      <path d="M16.5 23 C22 28.5 25.8 36.5 26.5 47 L21 47 C20.2 38 18.6 30 16.5 23 Z"/>
      <path d="M47.5 23 C42 28.5 38.2 36.5 37.5 47 L43 47 C43.8 38 45.4 30 47.5 23 Z"/>
    </g>
  </g>
  <text x="76" y="44"
        font-family="system-ui, -apple-system, 'Segoe UI', Roboto, 'Helvetica Neue', Arial, sans-serif"
        font-size="33" font-weight="800" letter-spacing="-0.5"
        fill="#123324">Crew<tspan fill="#1e5e3f">HQ</tspan></text>
</svg>
